{"accessors" : [{"bufferView" : 0, "byteOffset" : 0, "componentType" : 5123, "count" : 6108, "type" : "SCALAR", "max" : [5051], "min" : [0]}, {"bufferView" : 1, "byteOffset" : 0, "componentType" : 5126, "count" : 5052, "type" : "VEC3", "max" : [0.0996209979057312, 1.6016919612884521, 0.1219950020313263], "min" : [-0.0996209979057312, 1.326246976852417, -0.12011200189590454], "name" : "POSITION"}, {"bufferView" : 1, "byteOffset" : 12, "componentType" : 5126, "count" : 5052, "type" : "VEC2", "max" : [0.6942870020866394, 0.38166099786758423], "min" : [0.008069000206887722, 0.01327502727508545], "name" : "TEXCOORD_0"}, {"bufferView" : 1, "byteOffset" : 20, "componentType" : 5126, "count" : 5052, "type" : "VEC3", "max" : [0.9987586736679077, 0.9989226460456848, 0.9997490048408508], "min" : [-0.9987586736679077, -0.9999739527702332, -0.9990795254707336], "name" : "NORMAL"}, {"bufferView" : 0, "byteOffset" : 12216, "componentType" : 5123, "count" : 24114, "type" : "SCALAR", "max" : [20126], "min" : [0]}, {"bufferView" : 2, "byteOffset" : 0, "componentType" : 5126, "count" : 20127, "type" : "VEC3", "max" : [0.694894015789032, 1.4020140171051025, 0.10596299916505814], "min" : [-0.6948930025100708, 0.0037620000075548887, -0.11860399693250656], "name" : "POSITION"}, {"bufferView" : 2, "byteOffset" : 12, "componentType" : 5126, "count" : 20127, "type" : "VEC2", "max" : [0.9967250227928162, 1.0016969442367554], "min" : [0.01117399986833334, 0.007326006889343262], "name" : "TEXCOORD_0"}, {"bufferView" : 2, "byteOffset" : 20, "componentType" : 5126, "count" : 20127, "type" : "VEC3", "max" : [0.9999576210975647, 0.9993143677711487, 1.000002145767212], "min" : [-0.9999576210975647, -0.9995924830436707, -0.9998323917388916], "name" : "NORMAL"}, {"bufferView" : 0, "byteOffset" : 60444, "componentType" : 5123, "count" : 6168, "type" : "SCALAR", "max" : [5165], "min" : [0]}, {"bufferView" : 3, "byteOffset" : 0, "componentType" : 5126, "count" : 5166, "type" : "VEC3", "max" : [0.5971940159797668, 1.3367350101470947, 0.08588200062513351], "min" : [-0.6046249866485596, 0.7846099734306335, -0.10747600346803665], "name" : "POSITION"}, {"bufferView" : 3, "byteOffset" : 12, "componentType" : 5126, "count" : 5166, "type" : "VEC2", "max" : [0.9784600138664246, 0.9885759949684143], "min" : [0.011137999594211578, 0.006280004978179932], "name" : "TEXCOORD_0"}, {"bufferView" : 3, "byteOffset" : 20, "componentType" : 5126, "count" : 5166, "type" : "VEC3", "max" : [0.9963605403900146, 0.9997783303260803, 0.9998381733894348], "min" : [-0.9883669018745422, -0.999911904335022, -0.9999513626098633], "name" : "NORMAL"}, {"bufferView" : 0, "byteOffset" : 72780, "componentType" : 5123, "count" : 4728, "type" : "SCALAR", "max" : [3975], "min" : [0]}, {"bufferView" : 4, "byteOffset" : 0, "componentType" : 5126, "count" : 3976, "type" : "VEC3", "max" : [0.11319299787282944, 0.9432770013809204, 0.06838800013065338], "min" : [-0.11319299787282944, 0.09973499923944473, -0.09595900028944016], "name" : "POSITION"}, {"bufferView" : 4, "byteOffset" : 12, "componentType" : 5126, "count" : 3976, "type" : "VEC2", "max" : [0.9670789837837219, 0.9998049736022949], "min" : [0.0032949999440461397, 0.00019502639770507812], "name" : "TEXCOORD_0"}, {"bufferView" : 4, "byteOffset" : 20, "componentType" : 5126, "count" : 3976, "type" : "VEC3", "max" : [0.9999696612358093, 0.5153226256370544, 0.9997636079788208], "min" : [-0.9999696612358093, -0.9969890713691711, -0.9999731183052063], "name" : "NORMAL"}, {"bufferView" : 0, "byteOffset" : 82236, "componentType" : 5123, "count" : 7824, "type" : "SCALAR", "max" : [7495], "min" : [0]}, {"bufferView" : 5, "byteOffset" : 0, "componentType" : 5126, "count" : 7496, "type" : "VEC3", "max" : [0.15207600593566895, 1.6152440309524536, 0.12902000546455383], "min" : [-0.15817299485206604, 1.3240740299224854, -0.1753299981355667], "name" : "POSITION"}, {"bufferView" : 5, "byteOffset" : 12, "componentType" : 5126, "count" : 7496, "type" : "VEC2", "max" : [0.21356800198554993, 0.6683869957923889], "min" : [0.021080000326037407, 0.36496901512145996], "name" : "TEXCOORD_0"}, {"bufferView" : 5, "byteOffset" : 20, "componentType" : 5126, "count" : 7496, "type" : "VEC3", "max" : [0.9992311596870422, 0.9985519051551819, 0.9998544454574585], "min" : [-0.9989316463470459, -0.9972279071807861, -0.9993299245834351], "name" : "NORMAL"}, {"bufferView" : 0, "byteOffset" : 97884, "componentType" : 5123, "count" : 540, "type" : "SCALAR", "max" : [455], "min" : [0]}, {"bufferView" : 6, "byteOffset" : 0, "componentType" : 5126, "count" : 456, "type" : "VEC3", "max" : [0.07622800022363663, 1.4600789546966553, 0.10261700302362442], "min" : [-0.07622800022363663, 1.4135440587997437, 0.08305999636650085], "name" : "POSITION"}, {"bufferView" : 6, "byteOffset" : 12, "componentType" : 5126, "count" : 456, "type" : "VEC2", "max" : [0.9763299822807312, 0.5594030022621155], "min" : [0.044210001826286316, 0.1167759895324707], "name" : "TEXCOORD_0"}, {"bufferView" : 6, "byteOffset" : 20, "componentType" : 5126, "count" : 456, "type" : "VEC3", "max" : [0.4737177789211273, 0.4916241466999054, 0.9902209043502808], "min" : [-0.4737177789211273, -0.12140008062124252, 0.8098397850990295], "name" : "NORMAL"}, {"bufferView" : 0, "byteOffset" : 98964, "componentType" : 5123, "count" : 216, "type" : "SCALAR", "max" : [187], "min" : [0]}, {"bufferView" : 7, "byteOffset" : 0, "componentType" : 5126, "count" : 188, "type" : "VEC3", "max" : [0.023384999483823776, 1.3781800270080566, 0.11519599705934525], "min" : [-0.023384999483823776, 1.3361259698867798, 0.0937729999423027], "name" : "POSITION"}, {"bufferView" : 7, "byteOffset" : 12, "componentType" : 5126, "count" : 188, "type" : "VEC2", "max" : [0.7002519965171814, 0.8969699740409851], "min" : [0.28703099489212036, 0.6220890283584595], "name" : "TEXCOORD_0"}, {"bufferView" : 7, "byteOffset" : 20, "componentType" : 5126, "count" : 188, "type" : "VEC3", "max" : [0.4516151249408722, -0.3011167049407959, 0.9326080679893494], "min" : [-0.4516151249408722, -0.48030391335487366, 0.8082228899002075], "name" : "NORMAL"}, {"bufferView" : 0, "byteOffset" : 99396, "componentType" : 5123, "count" : 72, "type" : "SCALAR", "max" : [63], "min" : [0]}, {"bufferView" : 8, "byteOffset" : 0, "componentType" : 5126, "count" : 64, "type" : "VEC3", "max" : [0.08053699880838394, 1.4898320436477661, 0.12230700254440308], "min" : [0.01687699928879738, 1.455665946006775, 0.10459999740123749], "name" : "POSITION"}, {"bufferView" : 8, "byteOffset" : 12, "componentType" : 5126, "count" : 64, "type" : "VEC2", "max" : [0.9597749710083008, 0.24500799179077148], "min" : [0.536670982837677, -0.034454941749572754], "name" : "TEXCOORD_0"}, {"bufferView" : 8, "byteOffset" : 20, "componentType" : 5126, "count" : 64, "type" : "VEC3", "max" : [0.4079222083091736, -0.14229969680309296, 0.9746050834655762], "min" : [0.09690050035715103, -0.23291821777820587, 0.8967488408088684], "name" : "NORMAL"}, {"bufferView" : 0, "byteOffset" : 99540, "componentType" : 5123, "count" : 4800, "type" : "SCALAR", "max" : [4066], "min" : [0]}, {"bufferView" : 9, "byteOffset" : 0, "componentType" : 5126, "count" : 4067, "type" : "VEC3", "max" : [0.09079500287771225, 1.3463200330734253, 0.1085280030965805], "min" : [-0.10717800259590149, 0.9562429785728455, -0.2671700119972229], "name" : "POSITION"}, {"bufferView" : 9, "byteOffset" : 12, "componentType" : 5126, "count" : 4067, "type" : "VEC2", "max" : [0.5366809964179993, 0.9370440244674683], "min" : [0.45415198802948, 0.18418598175048828], "name" : "TEXCOORD_0"}, {"bufferView" : 9, "byteOffset" : 20, "componentType" : 5126, "count" : 4067, "type" : "VEC3", "max" : [0.9015153646469116, 0.9903100728988647, 0.997535765171051], "min" : [-0.796837568283081, -0.05670131742954254, -0.9998034238815308], "name" : "NORMAL"}], "asset" : {"generator" : "Aspose.3D 23.12.0", "version" : "2.0"}, "buffers" : [{"uri" : "data:application/octet-stream;base64,", "byteLength" : 1855420}], "bufferViews" : [{"buffer" : 0, "byteOffset" : 0, "byteLength" : 109140, "target" : 34963}, {"buffer" : 0, "byteOffset" : 109144, "byteLength" : 195456, "byteStride" : 32, "target" : 34962}, {"buffer" : 0, "byteOffset" : 304604, "byteLength" : 771648, "byteStride" : 32, "target" : 34962}, {"buffer" : 0, "byteOffset" : 1076256, "byteLength" : 197376, "byteStride" : 32, "target" : 34962}, {"buffer" : 0, "byteOffset" : 1273636, "byteLength" : 151296, "byteStride" : 32, "target" : 34962}, {"buffer" : 0, "byteOffset" : 1424936, "byteLength" : 250368, "byteStride" : 32, "target" : 34962}, {"buffer" : 0, "byteOffset" : 1675308, "byteLength" : 17280, "byteStride" : 32, "target" : 34962}, {"buffer" : 0, "byteOffset" : 1692592, "byteLength" : 6912, "byteStride" : 32, "target" : 34962}, {"buffer" : 0, "byteOffset" : 1699508, "byteLength" : 2304, "byteStride" : 32, "target" : 34962}, {"buffer" : 0, "byteOffset" : 1701816, "byteLength" : 153600, "byteStride" : 32, "target" : 34962}], "images" : [{"uri" : "tEXTURE\\\\BOdy Skin Base Color.png"}, {"uri" : "tEXTURE\\\\BOdy Skin Base Color.png"}, {"uri" : "-bm 0.500000 tEXTURE\\\\top normal.png"}, {"uri" : "-s 5.000000 5.000000 5.000000 tEXTURE\\\\top color.png"}, {"uri" : "-s 5.000000 5.000000 5.000000 tEXTURE\\\\bot color.jpg"}, {"uri" : "tEXTURE\\\\COLORS.jpg"}, {"uri" : "tEXTURE\\\\FACE Base Color.png"}, {"uri" : "tEXTURE\\\\COLORS.jpg"}], "materials" : [{"name" : "Head", "pbrMetallicRoughness" : {"baseColorFactor" : [1, 1, 1, 1], "baseColorTexture" : {"index" : 0, "texCoord" : 0}, "metallicFactor" : 1, "roughnessFactor" : 1}, "emissiveFactor" : [0, 0, 0], "alphaMode" : "OPAQUE", "doubleSided" : false}, {"name" : "BOdy_Skin", "pbrMetallicRoughness" : {"baseColorFactor" : [1, 1, 1, 1], "baseColorTexture" : {"index" : 1, "texCoord" : 0}, "metallicFactor" : 1, "roughnessFactor" : 1}, "emissiveFactor" : [0, 0, 0], "alphaMode" : "OPAQUE", "doubleSided" : false}, {"name" : "Top", "pbrMetallicRoughness" : {"baseColorFactor" : [1, 1, 1, 1], "baseColorTexture" : {"index" : 3, "texCoord" : 0}, "metallicFactor" : 1, "roughnessFactor" : 1}, "normalTexture" : {"index" : 2, "texCoord" : 0, "scale" : 1}, "emissiveFactor" : [0, 0, 0], "alphaMode" : "OPAQUE", "doubleSided" : false}, {"name" : "BOT", "pbrMetallicRoughness" : {"baseColorFactor" : [1, 1, 1, 1], "baseColorTexture" : {"index" : 4, "texCoord" : 0}, "metallicFactor" : 1, "roughnessFactor" : 1}, "emissiveFactor" : [0, 0, 0], "alphaMode" : "OPAQUE", "doubleSided" : false}, {"name" : "Hair", "pbrMetallicRoughness" : {"baseColorFactor" : [1, 1, 1, 1], "baseColorTexture" : {"index" : 5, "texCoord" : 0}, "metallicFactor" : 1, "roughnessFactor" : 1}, "emissiveFactor" : [0, 0, 0], "alphaMode" : "OPAQUE", "doubleSided" : false}, {"name" : "FACE", "pbrMetallicRoughness" : {"baseColorFactor" : [1, 1, 1, 1], "baseColorTexture" : {"index" : 6, "texCoord" : 0}, "metallicFactor" : 1, "roughnessFactor" : 1}, "emissiveFactor" : [0, 0, 0], "alphaMode" : "OPAQUE", "doubleSided" : false}, {"name" : "FACE", "pbrMetallicRoughness" : {"baseColorFactor" : [1, 1, 1, 1], "baseColorTexture" : {"index" : 6, "texCoord" : 0}, "metallicFactor" : 1, "roughnessFactor" : 1}, "emissiveFactor" : [0, 0, 0], "alphaMode" : "OPAQUE", "doubleSided" : false}, {"name" : "FACE", "pbrMetallicRoughness" : {"baseColorFactor" : [1, 1, 1, 1], "baseColorTexture" : {"index" : 6, "texCoord" : 0}, "metallicFactor" : 1, "roughnessFactor" : 1}, "emissiveFactor" : [0, 0, 0], "alphaMode" : "OPAQUE", "doubleSided" : false}, {"name" : "Scarf", "pbrMetallicRoughness" : {"baseColorFactor" : [1, 1, 1, 1], "baseColorTexture" : {"index" : 7, "texCoord" : 0}, "metallicFactor" : 1, "roughnessFactor" : 1}, "emissiveFactor" : [0, 0, 0], "alphaMode" : "OPAQUE", "doubleSided" : false}], "meshes" : [{"primitives" : [{"attributes" : {"POSITION" : 1, "TEXCOORD_0" : 2, "NORMAL" : 3}, "indices" : 0, "material" : 0, "mode" : 4}], "name" : ""}, {"primitives" : [{"attributes" : {"POSITION" : 5, "TEXCOORD_0" : 6, "NORMAL" : 7}, "indices" : 4, "material" : 1, "mode" : 4}], "name" : ""}, {"primitives" : [{"attributes" : {"POSITION" : 9, "TEXCOORD_0" : 10, "NORMAL" : 11}, "indices" : 8, "material" : 2, "mode" : 4}], "name" : ""}, {"primitives" : [{"attributes" : {"POSITION" : 13, "TEXCOORD_0" : 14, "NORMAL" : 15}, "indices" : 12, "material" : 3, "mode" : 4}], "name" : ""}, {"primitives" : [{"attributes" : {"POSITION" : 17, "TEXCOORD_0" : 18, "NORMAL" : 19}, "indices" : 16, "material" : 4, "mode" : 4}], "name" : ""}, {"primitives" : [{"attributes" : {"POSITION" : 21, "TEXCOORD_0" : 22, "NORMAL" : 23}, "indices" : 20, "material" : 5, "mode" : 4}], "name" : ""}, {"primitives" : [{"attributes" : {"POSITION" : 25, "TEXCOORD_0" : 26, "NORMAL" : 27}, "indices" : 24, "material" : 6, "mode" : 4}], "name" : ""}, {"primitives" : [{"attributes" : {"POSITION" : 29, "TEXCOORD_0" : 30, "NORMAL" : 31}, "indices" : 28, "material" : 7, "mode" : 4}], "name" : ""}, {"primitives" : [{"attributes" : {"POSITION" : 33, "TEXCOORD_0" : 34, "NORMAL" : 35}, "indices" : 32, "material" : 8, "mode" : 4}], "name" : ""}], "nodes" : [{"mesh" : 0, "name" : "Head_Hair001.baked.005"}, {"mesh" : 1, "name" : "body_pERSONAJE.002"}, {"mesh" : 2, "name" : "Top_pERSONAJE.004"}, {"mesh" : 3, "name" : "bot_pERSONAJE.005"}, {"mesh" : 4, "name" : "hair_Hair001.baked.001"}, {"mesh" : 5, "name" : "eyes_Hair001.baked.009"}, {"mesh" : 6, "name" : "boca_Hair001.baked.010"}, {"mesh" : 7, "name" : "ceja_Hair001.baked.003"}, {"mesh" : 8, "name" : "scarf_Cube"}], "samplers" : [{"magFilter" : 9729, "minFilter" : 9729, "wrapS" : 10497, "wrapT" : 10497}, {"magFilter" : 9729, "minFilter" : 9729, "wrapS" : 10497, "wrapT" : 10497}, {"magFilter" : 9729, "minFilter" : 9729, "wrapS" : 10497, "wrapT" : 10497}, {"magFilter" : 9729, "minFilter" : 9729, "wrapS" : 10497, "wrapT" : 10497}, {"magFilter" : 9729, "minFilter" : 9729, "wrapS" : 10497, "wrapT" : 10497}, {"magFilter" : 9729, "minFilter" : 9729, "wrapS" : 10497, "wrapT" : 10497}, {"magFilter" : 9729, "minFilter" : 9729, "wrapS" : 10497, "wrapT" : 10497}, {"magFilter" : 9729, "minFilter" : 9729, "wrapS" : 10497, "wrapT" : 10497}], "scene" : 0, "scenes" : [{"nodes" : [0, 1, 2, 3, 4, 5, 6, 7, 8]}], "textures" : [{"sampler" : 0, "source" : 0, "name" : ""}, {"sampler" : 1, "source" : 1, "name" : ""}, {"sampler" : 2, "source" : 2, "name" : ""}, {"sampler" : 3, "source" : 3, "name" : ""}, {"sampler" : 4, "source" : 4, "name" : ""}, {"sampler" : 5, "source" : 5, "name" : ""}, {"sampler" : 6, "source" : 6, "name" : ""}, {"sampler" : 7, "source" : 7, "name" : ""}]}