<svg xmlns="http://www.w3.org/2000/svg" version="1.1" xmlns:xlink="http://www.w3.org/1999/xlink" xmlns:svgjs="http://svgjs.dev/svgjs" width="1500" height="935" viewBox="0 0 1500 935"><g transform="matrix(1,0,0,1,-0.9090909090909918,0.3785425101214628)"><svg viewBox="0 0 396 247" data-background-color="#ffffff" preserveAspectRatio="xMidYMid meet" height="935" width="1500" xmlns="http://www.w3.org/2000/svg" xmlns:xlink="http://www.w3.org/1999/xlink"><g id="tight-bounds" transform="matrix(1,0,0,1,0.2400000000000091,-0.09999999999999432)"><svg viewBox="0 0 395.52 247.2" height="247.2" width="395.52"><g><svg></svg></g><g><svg viewBox="0 0 395.52 247.2" height="247.2" width="395.52"><g transform="matrix(1,0,0,1,75.54432,84.05258670458744)"><svg viewBox="0 0 244.43135999999998 79.0948265908251" height="79.0948265908251" width="244.43135999999998"><g><svg viewBox="0 0 244.43135999999998 79.0948265908251" height="79.0948265908251" width="244.43135999999998"><g><svg viewBox="0 0 244.43135999999998 79.0948265908251" height="79.0948265908251" width="244.43135999999998"><g><svg viewBox="0 0 244.43135999999998 79.0948265908251" height="79.0948265908251" width="244.43135999999998"><g id="textblocktransform"><svg viewBox="0 0 244.43135999999998 79.0948265908251" height="79.0948265908251" width="244.43135999999998" id="textblock"><g><svg viewBox="0 0 244.43135999999998 42.65997002864235" height="42.65997002864235" width="244.43135999999998"><g transform="matrix(1,0,0,1,0,0)"><svg width="244.43135999999998" viewBox="3.7 -41.65 261.82 45.7" height="42.65997002864235" data-palette-color="#d7dbde"><path d="M23.65-2.85L23.65-2.85Q24.9-0.7 24.9 1.3L24.9 1.3Q24.9 1.75 24.83 2.13 24.75 2.5 24.65 2.9L24.65 2.9Q23.8 2.8 22.88 2.75 21.95 2.7 20.95 2.7L20.95 2.7Q19.75 2.7 18.53 2.78 17.3 2.85 15.8 3 14.3 3.15 12.45 3.4 10.6 3.65 8.15 4.05L8.15 4.05Q7 3.65 5.85 2.48 4.7 1.3 3.7-0.35L3.7-0.35Q4.2-1.45 4.95-3.08 5.7-4.7 6.7-7.03 7.7-9.35 8.93-12.48 10.15-15.6 11.55-19.7L11.55-19.7Q12.45-22.4 13.1-24.45 13.75-26.5 14.28-28.43 14.8-30.35 15.3-32.45 15.8-34.55 16.4-37.3L16.4-37.3Q18.4-36.9 19.88-35.83 21.35-34.75 22.7-32.75L22.7-32.75Q22.3-32.1 21.65-30.65 21-29.2 20.13-27.13 19.25-25.05 18.2-22.43 17.15-19.8 16-16.8L16-16.8Q14.9-13.85 13.85-11.25 12.8-8.65 11.98-6.55 11.15-4.45 10.65-2.95 10.15-1.45 10.15-0.7L10.15-0.7Q10.95-0.75 11.6-0.8 12.25-0.85 12.95-0.98 13.65-1.1 14.48-1.28 15.3-1.45 16.45-1.75L16.45-1.75Q17.45-2 18.3-2.18 19.15-2.35 19.98-2.48 20.8-2.6 21.68-2.68 22.55-2.75 23.65-2.85ZM45.5-20.2L45.5-20.2Q46-20.2 46.67-20.03 47.35-19.85 47.9-19.58 48.45-19.3 48.82-19 49.2-18.7 49.2-18.45L49.2-18.45Q48.2-16.35 47.35-14.23 46.5-12.1 45.9-10.15 45.3-8.2 44.97-6.5 44.65-4.8 44.65-3.55L44.65-3.55Q44.65-2.15 44.95-1.23 45.25-0.3 45.95 0.1L45.95 0.1Q45.35 0.5 44.4 0.75 43.45 1 42.7 1L42.7 1Q40 1 40-2.7L40-2.7Q40-5.55 41.9-10.5L41.9-10.5Q40.9-8.2 39.6-6.18 38.3-4.15 36.95-2.6 35.6-1.05 34.22-0.08 32.85 0.9 31.7 1.1L31.7 1.1Q29.85 1 28.7-0.68 27.55-2.35 27.55-4.95L27.55-4.95Q27.55-7.75 28.75-10.85 29.95-13.95 31.82-16.6 33.7-19.25 35.9-21.03 38.1-22.8 40.15-22.9L40.15-22.9Q40.65-22.75 41.27-22.3 41.9-21.85 42.47-21.25 43.05-20.65 43.45-20.03 43.85-19.4 43.9-18.95L43.9-18.95Q41.9-18.65 39.77-17 37.65-15.35 35.92-13.03 34.2-10.7 33.1-8.05 32-5.4 32-3.1L32-3.1Q32-2.15 32.7-1.9L32.7-1.9Q34.15-2.2 36.05-4.38 37.95-6.55 40.65-11.1L40.65-11.1Q41.15-12 41.77-13.1 42.4-14.2 43.05-15.4 43.7-16.6 44.32-17.82 44.95-19.05 45.5-20.2ZM50.54-1L50.54-1Q50.79-2.45 51.42-4.83 52.04-7.2 52.89-9.88 53.74-12.55 54.69-15.25 55.64-17.95 56.54-20.1L56.54-20.1Q57.19-21.65 57.69-22.53 58.19-23.4 58.79-24L58.79-24Q59.49-23.9 60.24-23.65 60.99-23.4 61.69-23.05 62.39-22.7 62.94-22.33 63.49-21.95 63.8-21.6L63.8-21.6Q62.44-20 61.42-17.95 60.39-15.9 59.34-12.7L59.34-12.7Q62.04-15.1 64.12-17.3 66.19-19.5 68-22.2L68-22.2Q68.3-22.45 69.05-22.45L69.05-22.45Q69.75-22.45 70.39-22.23 71.05-22 71.3-21.6L71.3-21.6Q70.39-19.2 70.39-16.85L70.39-16.85Q70.39-14.65 71.05-13.55L71.05-13.55Q71-13.25 70.37-12.4 69.75-11.55 69-10.8L69-10.8Q67.64-11.5 66.59-12.73 65.55-13.95 65.05-15.4L65.05-15.4Q62.69-13.75 61.04-12.18 59.39-10.6 58.22-8.68 57.04-6.75 56.22-4.25 55.39-1.75 54.64 1.7L54.64 1.7Q54.19 1.65 53.57 1.38 52.94 1.1 52.32 0.7 51.69 0.3 51.19-0.15 50.69-0.6 50.54-1ZM89.14-20.2L89.14-20.2Q89.64-20.2 90.32-20.03 90.99-19.85 91.54-19.58 92.09-19.3 92.47-19 92.84-18.7 92.84-18.45L92.84-18.45Q91.84-16.35 90.99-14.23 90.14-12.1 89.54-10.15 88.94-8.2 88.62-6.5 88.29-4.8 88.29-3.55L88.29-3.55Q88.29-2.15 88.59-1.23 88.89-0.3 89.59 0.1L89.59 0.1Q88.99 0.5 88.04 0.75 87.09 1 86.34 1L86.34 1Q83.64 1 83.64-2.7L83.64-2.7Q83.64-5.55 85.54-10.5L85.54-10.5Q84.54-8.2 83.24-6.18 81.94-4.15 80.59-2.6 79.24-1.05 77.87-0.08 76.49 0.9 75.34 1.1L75.34 1.1Q73.49 1 72.34-0.68 71.19-2.35 71.19-4.95L71.19-4.95Q71.19-7.75 72.39-10.85 73.59-13.95 75.47-16.6 77.34-19.25 79.54-21.03 81.74-22.8 83.79-22.9L83.79-22.9Q84.29-22.75 84.92-22.3 85.54-21.85 86.12-21.25 86.69-20.65 87.09-20.03 87.49-19.4 87.54-18.95L87.54-18.95Q85.54-18.65 83.42-17 81.29-15.35 79.57-13.03 77.84-10.7 76.74-8.05 75.64-5.4 75.64-3.1L75.64-3.1Q75.64-2.15 76.34-1.9L76.34-1.9Q77.79-2.2 79.69-4.38 81.59-6.55 84.29-11.1L84.29-11.1Q84.79-12 85.42-13.1 86.04-14.2 86.69-15.4 87.34-16.6 87.97-17.82 88.59-19.05 89.14-20.2ZM95.24-3.35L95.24-3.35Q95.24-3.8 95.31-4.48 95.39-5.15 95.59-6.28 95.79-7.4 96.12-9 96.44-10.6 96.94-12.85L96.94-12.85Q97.04-13.35 97.39-14.45 97.74-15.55 98.31-16.78 98.89-18 99.72-19.15 100.54-20.3 101.69-20.85L101.69-20.85Q102.54-20.65 103.94-19.83 105.34-19 106.34-17.55L106.34-17.55Q105.19-16.25 104.42-14.95 103.64-13.65 103.02-12.25 102.39-10.85 101.87-9.35 101.34-7.85 100.69-6.2L100.69-6.2Q100.14-4.8 99.69-3.33 99.24-1.85 99.19-0.75L99.19-0.75Q99.19 0.15 99.17 0.53 99.14 0.9 98.89 0.9L98.89 0.9Q98.69 0.9 98.09 0.65 97.49 0.4 96.87-0.13 96.24-0.65 95.74-1.45 95.24-2.25 95.24-3.35ZM104.79-25.05L104.79-25.05Q104.79-25.35 104.94-25.95L104.94-25.95Q104.69-26.2 104.52-26.7 104.34-27.2 104.34-27.6L104.34-27.6Q104.34-28.05 104.47-28.83 104.59-29.6 104.79-30.5 104.99-31.4 105.29-32.38 105.59-33.35 105.89-34.15L105.89-34.15Q106.49-34.15 107.37-33.83 108.24-33.5 109.14-32.98 110.04-32.45 110.79-31.83 111.54-31.2 111.94-30.65L111.94-30.65Q111.39-30.1 110.49-29.13 109.59-28.15 108.74-27.08 107.89-26 107.19-25.05 106.49-24.1 106.29-23.7L106.29-23.7Q105.69-23.8 105.24-24.23 104.79-24.65 104.79-25.05ZM111.59 0.35L111.59 0.35Q113.89-1.2 116.09-3.63 118.29-6.05 120.09-8.88 121.89-11.7 123.14-14.75 124.39-17.8 124.84-20.6L124.84-20.6Q124.84-21.2 124.19-21.4L124.19-21.4Q123.49-21.4 122.26-20.18 121.04-18.95 119.56-17.05 118.09-15.15 116.56-12.8 115.04-10.45 113.79-8.13 112.54-5.8 111.66-3.78 110.79-1.75 110.69-0.5L110.69-0.5Q110.19-0.5 109.84-1.5L109.84-1.5Q109.74-1.75 109.49-2.02 109.24-2.3 108.69-2.7L108.69-2.7Q108.44-2.9 108.19-3.18 107.94-3.45 107.84-3.65L107.84-3.65Q107.64-4.05 107.64-4.95L107.64-4.95Q107.64-7.9 108.39-11.6 109.14-15.3 110.36-19.15 111.59-23 113.24-26.73 114.89-30.45 116.66-33.55 118.44-36.65 120.24-38.8 122.04-40.95 123.64-41.65L123.64-41.65Q124.14-41.5 124.84-41.15 125.54-40.8 126.24-40.35 126.94-39.9 127.56-39.45 128.19-39 128.49-38.65L128.49-38.65Q122.99-34.2 118.96-27.23 114.94-20.25 112.39-10.75L112.39-10.75Q113.79-13.35 115.54-15.78 117.29-18.2 119.01-20.05 120.74-21.9 122.31-23 123.89-24.1 124.94-24.1L124.94-24.1Q125.74-23.9 126.49-23.4 127.24-22.9 127.84-22.18 128.44-21.45 128.84-20.63 129.24-19.8 129.34-18.9L129.34-18.9Q129.29-16.8 128.61-14.43 127.94-12.05 126.81-9.75 125.69-7.45 124.26-5.35 122.84-3.25 121.26-1.68 119.69-0.1 118.11 0.85 116.54 1.8 115.14 1.8L115.14 1.8Q114.54 1.8 113.91 1.68 113.29 1.55 112.76 1.33 112.24 1.1 111.91 0.85 111.59 0.6 111.59 0.35ZM147.13 3.8L147.13 3.8Q144.28 2.95 143.28 2.18 142.28 1.4 142.28 0.05L142.28 0.05Q142.28-1.45 142.98-4.17 143.68-6.9 144.81-10.25 145.93-13.6 147.38-17.25 148.83-20.9 150.33-24.25 151.83-27.6 153.26-30.38 154.68-33.15 155.78-34.7L155.78-34.7 155.43-36.8Q156.13-36.8 157.38-36.45 158.63-36.1 159.91-35.6 161.18-35.1 162.16-34.58 163.13-34.05 163.23-33.7L163.23-33.7Q162.98-32.5 162.83-30.08 162.68-27.65 162.68-24.9L162.68-24.9Q162.68-19.45 163.11-14.23 163.53-9 165.08-3.6L165.08-3.6Q165.88-7.6 166.81-11.58 167.73-15.55 168.73-19.18 169.73-22.8 170.73-25.9 171.73-29 172.66-31.33 173.58-33.65 174.38-34.98 175.18-36.3 175.83-36.4L175.83-36.4Q176.38-36.3 177.03-35.98 177.68-35.65 178.28-35.2 178.88-34.75 179.38-34.2 179.88-33.65 180.18-33.1L180.18-33.1Q178.58-32.45 177.01-30.05 175.43-27.65 174.01-24.23 172.58-20.8 171.36-16.8 170.13-12.8 169.21-8.93 168.28-5.05 167.76-1.75 167.23 1.55 167.18 3.55L167.18 3.55Q167.18 3.65 167.23 3.7L167.23 3.7Q167.08 3.75 166.91 3.75 166.73 3.75 166.58 3.75L166.58 3.75Q164.28 3.75 162.51 3.18 160.73 2.6 160.18 1.55L160.18 1.55Q159.13-2.65 158.43-6.55 157.73-10.45 157.26-14.35 156.78-18.25 156.51-22.23 156.23-26.2 156.08-30.55L156.08-30.55Q155.13-29.05 154.08-26.63 153.03-24.2 152.03-21.3 151.03-18.4 150.11-15.2 149.18-12 148.48-8.95 147.78-5.9 147.38-3.18 146.98-0.45 146.98 1.55L146.98 1.55Q146.98 2.6 147.01 3.05 147.03 3.5 147.13 3.8ZM193.18-20.7L193.18-20.7Q192.98-17.6 192.08-15.38 191.18-13.15 189.51-11.48 187.83-9.8 185.43-8.45 183.03-7.1 179.83-5.85L179.83-5.85Q179.83-5.55 179.81-5.23 179.78-4.9 179.78-4.55L179.78-4.55Q179.78-3.9 179.88-3.2 179.98-2.5 180.23-1.9 180.48-1.3 180.93-0.93 181.38-0.55 182.08-0.55L182.08-0.55Q183.43-0.55 184.73-1.15 186.03-1.75 187.21-2.63 188.38-3.5 189.41-4.53 190.43-5.55 191.23-6.4L191.23-6.4Q191.73-5.95 192.08-5.55L192.08-5.55Q189.83-2.55 187.16-0.58 184.48 1.4 182.08 1.95L182.08 1.95Q178.63 1.55 176.71-0.58 174.78-2.7 174.78-5.7L174.78-5.7Q174.78-7.75 175.36-9.88 175.93-12 176.96-13.98 177.98-15.95 179.36-17.7 180.73-19.45 182.31-20.75 183.88-22.05 185.56-22.8 187.23-23.55 188.88-23.55L188.88-23.55Q191.18-23.25 193.18-20.7ZM189.73-19.05L189.73-19.05Q188.38-18.85 186.93-17.95 185.48-17.05 184.21-15.55 182.93-14.05 181.88-12.05 180.83-10.05 180.23-7.75L180.23-7.75Q184.23-9.75 186.88-12.68 189.53-15.6 189.73-19.05ZM195.43-0.85L195.43-0.85Q195.43-2.6 195.78-4.98 196.13-7.35 196.8-10.05 197.48-12.75 198.4-15.7 199.33-18.65 200.48-21.6L200.48-21.6Q201.48-24.25 202.8-26.95 204.13-29.65 205.68-32.25 207.23-34.85 208.9-37.2 210.58-39.55 212.28-41.5L212.28-41.5Q213.08-41.5 214-41.3 214.93-41.1 215.8-40.78 216.68-40.45 217.4-40 218.13-39.55 218.58-39.1L218.58-39.1Q214.83-35.25 211.83-31.33 208.83-27.4 207.08-23.95L207.08-23.95Q206.13-22.05 205.35-20.4 204.58-18.75 203.93-17.13 203.28-15.5 202.75-13.88 202.23-12.25 201.78-10.45L201.78-10.45Q211.38-22.7 216.03-22.7L216.03-22.7Q217.33-22.7 218.83-21.85 220.33-21 221.48-19.55L221.48-19.55Q219.93-17.85 218.28-15.45 216.63-13.05 215.25-10.63 213.88-8.2 213-6.13 212.13-4.05 212.13-3.05L212.13-3.05Q212.13-2.55 212.28-2.38 212.43-2.2 212.93-2.2L212.93-2.2Q213.68-2.2 214.13-2.4 214.58-2.6 214.68-2.6L214.68-2.6Q214.93-2.2 214.98-2.05 215.03-1.9 215.03-1.8L215.03-1.8Q215.03-1.6 214.43-1.23 213.83-0.85 213-0.48 212.18-0.1 211.38 0.2 210.58 0.5 210.18 0.5L210.18 0.5Q209.68 0.5 209.18 0.23 208.68-0.05 208.3-0.5 207.93-0.95 207.7-1.5 207.48-2.05 207.48-2.65L207.48-2.65Q207.48-3.4 207.9-4.88 208.33-6.35 209.08-8.33 209.83-10.3 210.88-12.65 211.93-15 213.13-17.45L213.13-17.45Q213.13-17.65 212.93-17.65L212.93-17.65Q212.78-17.65 212.15-17.25 211.53-16.85 210.98-16.45L210.98-16.45Q209.18-15.1 207.35-13.13 205.53-11.15 203.8-8.8 202.08-6.45 200.55-3.83 199.03-1.2 197.93 1.45L197.93 1.45Q197.78 1.8 197.48 2.1 197.18 2.4 196.98 2.4L196.98 2.4Q196.83 2.4 196.55 2.05 196.28 1.7 196.05 1.18 195.83 0.65 195.63 0.1 195.43-0.45 195.43-0.85ZM238.58-20.2L238.58-20.2Q239.08-20.2 239.75-20.03 240.43-19.85 240.98-19.58 241.53-19.3 241.9-19 242.28-18.7 242.28-18.45L242.28-18.45Q241.28-16.35 240.43-14.23 239.58-12.1 238.98-10.15 238.38-8.2 238.05-6.5 237.73-4.8 237.73-3.55L237.73-3.55Q237.73-2.15 238.03-1.23 238.33-0.3 239.03 0.1L239.03 0.1Q238.43 0.5 237.48 0.75 236.53 1 235.78 1L235.78 1Q233.08 1 233.08-2.7L233.08-2.7Q233.08-5.55 234.98-10.5L234.98-10.5Q233.98-8.2 232.68-6.18 231.38-4.15 230.03-2.6 228.68-1.05 227.3-0.08 225.93 0.9 224.78 1.1L224.78 1.1Q222.93 1 221.78-0.68 220.63-2.35 220.63-4.95L220.63-4.95Q220.63-7.75 221.83-10.85 223.03-13.95 224.9-16.6 226.78-19.25 228.98-21.03 231.18-22.8 233.23-22.9L233.23-22.9Q233.73-22.75 234.35-22.3 234.98-21.85 235.55-21.25 236.13-20.65 236.53-20.03 236.93-19.4 236.98-18.95L236.98-18.95Q234.98-18.65 232.85-17 230.73-15.35 229-13.03 227.28-10.7 226.18-8.05 225.08-5.4 225.08-3.1L225.08-3.1Q225.08-2.15 225.78-1.9L225.78-1.9Q227.23-2.2 229.13-4.38 231.03-6.55 233.73-11.1L233.73-11.1Q234.23-12 234.85-13.1 235.48-14.2 236.13-15.4 236.78-16.6 237.4-17.82 238.03-19.05 238.58-20.2ZM244.77-3.2L244.77-3.2Q244.77-5.4 245.82-9.38 246.87-13.35 248.77-18.65L248.77-18.65Q251.87-27.1 254.6-32.73 257.32-38.35 259.92-41.5L259.92-41.5Q260.52-41.4 261.4-41 262.27-40.6 263.12-40.13 263.97-39.65 264.65-39.15 265.32-38.65 265.52-38.35L265.52-38.35Q261.62-33.75 258.67-28.45 255.72-23.15 253.27-16.3L253.27-16.3Q251.17-10.4 250.07-5.68 248.97-0.95 248.97 2.2L248.97 2.2Q248.97 3.05 248.97 3.25 248.97 3.45 249.02 3.65L249.02 3.65Q248.32 3.55 247.82 3.3 247.32 3.05 247.17 2.7L247.17 2.7Q247.07 2.45 246.62 1.98 246.17 1.5 245.82 1.25L245.82 1.25Q245.37 0.95 245.07-0.33 244.77-1.6 244.77-3.2Z" opacity="1" transform="matrix(1,0,0,1,0,0)" fill="#d7dbde" class="wordmark-text-0" data-fill-palette-color="primary" id="text-0"></path></svg></g></svg></g><g transform="matrix(1,0,0,1,0,52.73096511312412)"><svg viewBox="0 0 244.43135999999998 26.363861477700976" height="26.363861477700976" width="244.43135999999998"><g transform="matrix(1,0,0,1,0,0)"><svg width="244.43135999999998" viewBox="-0.3 -36.6 486.29 52.45" height="26.363861477700976" data-palette-color="#d7dbde"><path d="M23.55-13.65L23.55-13.65Q19.2-8.8 14.85-5.5L14.85-5.5Q12.7-3.9 9.9-2.55 7.1-1.2 4.85-1.2L4.85-1.2Q-0.3-1.2-0.3-6.05L-0.3-6.05Q-0.3-10.6 1.9-15.33 4.1-20.05 7.53-23.75 10.95-27.45 14.9-30.43 18.85-33.4 22.53-35 26.2-36.6 28.7-36.6L28.7-36.6Q31.95-36.6 32.1-33.75L32.1-33.75Q33.85-34.5 34.75-34.5L34.75-34.5Q35.35-34.35 35.35-33.95 35.35-33.55 35.1-33.2 34.85-32.85 34.25-32.85 33.65-32.85 31.95-32.25L31.95-32.25Q31.25-28.25 27.25-24.7 23.25-21.15 20.7-21.15L20.7-21.15Q19.4-21.15 19.4-22.35L19.4-22.35Q19.4-24.65 23.05-27.88 26.7-31.1 30.8-33.15L30.8-33.15 30.8-33.2Q30.8-35.45 28.15-35.45L28.15-35.45Q26-35.45 22.7-33.98 19.4-32.5 15.83-29.73 12.25-26.95 9.13-23.48 6-20 3.98-15.48 1.95-10.95 1.95-6.5L1.95-6.5Q1.95-2.65 5.6-2.65L5.6-2.65Q13.55-2.65 27.4-19.2L27.4-19.2Q28.25-20.2 28.9-20.2 29.55-20.2 29.55-20.08 29.55-19.95 29.25-19.38 28.95-18.8 25.83-13.8 22.7-8.8 19.1-3.05L19.1-3.05Q9.8 11.95 9 13.15L9 13.15Q8.85 13.45 8.85 13.65 8.85 13.85 9.3 13.85L9.3 13.85 10.55 13.75Q10.95 13.75 10.95 13.9L10.95 13.9Q10.95 14.15 9.5 15 8.05 15.85 7.45 15.85 6.85 15.85 6.85 15.1 6.85 14.35 7.38 12.88 7.9 11.4 12.03 4.93 16.15-1.55 19.93-7.33 23.7-13.1 23.7-13.38 23.7-13.65 23.55-13.65ZM22-22.5L22-22.5Q23.85-22.5 26.9-25.35 29.95-28.2 30.65-31.7L30.65-31.7Q27.2-30.1 24.23-27.55 21.25-25 21.25-23.2L21.25-23.2Q21.25-22.5 22-22.5ZM57.93-15.25L57.93-15.25Q58.68-15.25 58.68-14.5 58.68-13.75 57.98-12.98 57.28-12.2 56.43-12.2L56.43-12.2Q55.73-12.2 55.73-13.18 55.73-14.15 56.53-14.7 57.33-15.25 57.93-15.25ZM53.23-8.65L53.23-8.65Q53.48-9.05 53.93-9.05 54.38-9.05 54.83-8.6L54.83-8.6Q54.83-8.4 54.18-7.7 53.53-7 51.98-4.58 50.43-2.15 50.43-1.35L50.43-1.35Q50.43-0.85 51.18-0.75L51.18-0.75Q52.18-0.75 54.28-1.73 56.38-2.7 57.98-3.7L57.98-3.7 59.58-4.7Q59.63-4.6 59.63-4.3 59.63-4 59.18-3.8L59.18-3.8Q52.43 0.8 49.78 0.8L49.78 0.8Q48.48 0.8 48.48-0.5 48.48-1.8 49.9-4.13 51.33-6.45 53.23-8.65ZM82.71-3.35L82.71-3.35Q82.51-3.25 82.33-3.25 82.16-3.25 82.16-3.45 82.16-3.65 82.31-3.8L82.31-3.8Q84.36-4.95 86.81-7.55L86.81-7.55Q84.56-8.25 84.56-9.53 84.56-10.8 86.26-12.38 87.96-13.95 89.46-13.95L89.46-13.95Q90.46-13.95 90.46-12.75L90.46-12.75Q90.46-10.9 88.61-8.8L88.61-8.8Q91.01-8.4 91.01-7.65L91.01-7.65Q91.01-6.65 90.13-6.13 89.26-5.6 88.11-4.25 86.96-2.9 86.96-1.55L86.96-1.55Q86.96-1.25 87.16-1 87.36-0.75 88.01-0.75 88.66-0.75 90.76-1.73 92.86-2.7 94.46-3.7L94.46-3.7 96.06-4.7Q96.11-4.6 96.11-4.3 96.11-4 95.66-3.8L95.66-3.8Q88.91 0.8 86.26 0.8L86.26 0.8Q84.96 0.8 84.96-0.5L84.96-0.5Q84.96-1.55 85.68-2.7 86.41-3.85 87.28-4.6 88.16-5.35 88.88-6.03 89.61-6.7 89.61-6.9 89.61-7.1 88.98-7.15 88.36-7.2 87.36-7.4L87.36-7.4Q84.61-4.45 82.71-3.35ZM85.81-10.3L85.81-10.3Q85.81-9.3 88.01-8.9L88.01-8.9Q89.31-10.5 89.31-11.68 89.31-12.85 88.56-12.85 87.81-12.85 86.81-11.98 85.81-11.1 85.81-10.3ZM120.18 0.8L120.18 0.8Q117.93 0.8 117.93-1.65L117.93-1.65Q117.93-4.9 121.46-10.98 124.98-17.05 129.51-21.88 134.03-26.7 136.63-26.7L136.63-26.7Q137.58-26.7 137.58-25.35L137.58-25.35Q137.58-23.25 134.06-18.5 130.53-13.75 126.48-9.6 122.43-5.45 120.23-3.9L120.23-3.9Q120.13-3.1 120.13-2.83 120.13-2.55 120.18-2.2 120.23-1.85 120.58-1.3 120.93-0.75 121.76-0.75 122.58-0.75 124.68-1.73 126.78-2.7 128.38-3.7L128.38-3.7 129.98-4.7Q130.03-4.6 130.03-4.3 130.03-4 129.58-3.8L129.58-3.8Q122.83 0.8 120.18 0.8ZM135.78-24.15L135.78-24.15Q135.73-25.25 135.13-25.25L135.13-25.25Q133.58-25.25 130.43-21.75 127.28-18.25 124.33-13.38 121.38-8.5 120.48-5L120.48-5Q122.58-6.7 125.88-10 129.18-13.3 132.38-17.55 135.58-21.8 135.78-24.15ZM200.79-33.9L200.79-33.9Q197.49-33.9 193.89-32.45 190.29-31 187.62-28.98 184.94-26.95 183.19-24.68 181.44-22.4 181.44-20.75L181.44-20.75Q181.44-17.75 184.19-17.75L184.19-17.75Q187.54-17.75 192.64-21.25 197.74-24.75 199.24-27.15L199.24-27.15Q199.49-27.55 199.77-27.55 200.04-27.55 200.04-27.15L200.04-27.15Q199.59-25.25 196.72-22.58 193.84-19.9 190.02-17.88 186.19-15.85 183.44-15.85L183.44-15.85Q179.89-15.85 179.89-19.55L179.89-19.55Q179.89-21.55 181.69-24.15 183.49-26.75 186.34-29.08 189.19-31.4 193.17-33 197.14-34.6 201.04-34.6L201.04-34.6Q208.59-34.6 208.59-29.95L208.59-29.95Q208.59-27.55 206.57-23.6 204.54-19.65 202.12-16.15 199.69-12.65 197.67-9 195.64-5.35 195.64-3.55 195.64-1.75 197.19-1.75L197.19-1.75Q200.59-1.75 204.94-4.55L204.94-4.55Q205.44-7.75 208.24-12.23 211.04-16.7 214.07-19.83 217.09-22.95 218.54-22.98 219.99-23 219.99-21.55L219.99-21.55Q219.99-18.95 215.82-13.68 211.64-8.4 206.44-4.65L206.44-4.65 206.44-4.3Q206.44-0.9 210.19-0.9L210.19-0.9Q213.29-0.9 219.09-6.4L219.09-6.4Q221.89-9.05 225.22-13.63 228.54-18.2 231.49-23.8L231.49-23.8Q228.79-22 228.49-22L228.49-22Q227.94-22 227.94-22.58 227.94-23.15 228.14-23.3 228.34-23.45 229.09-23.95L229.09-23.95Q231.29-25.4 231.99-26.25L231.99-26.25 233.59-28.2Q233.74-28.6 234.04-28.6L234.04-28.6Q234.69-28.5 234.69-28.1L234.69-28.1Q234.69-27.9 234.64-27.8L234.64-27.8 232.19-23.05Q230.59-19.75 227.14-14.95 223.69-10.15 220.99-7.13 218.29-4.1 215.07-1.93 211.84 0.25 209.19 0.25L209.19 0.25Q204.84 0.25 204.84-3.4L204.84-3.4 204.84-3.55Q199.99-0.55 196.59-0.55 193.19-0.55 193.19-3.25L193.19-3.25Q193.19-5.4 195.32-9.25 197.44-13.1 199.99-16.63 202.54-20.15 204.67-24.05 206.79-27.95 206.79-30.15L206.79-30.15Q206.79-33.9 200.79-33.9ZM218.54-20.7L218.54-20.7Q218.54-21.6 217.52-21.6 216.49-21.6 214.07-18.95 211.64-16.3 209.37-12.45 207.09-8.6 206.59-5.7L206.59-5.7Q211.19-9.15 214.87-13.88 218.54-18.6 218.54-20.7ZM246.67-0.65L246.67-0.65Q247.12-0.65 251.69-4.63 256.27-8.6 257.07-8.6 257.87-8.6 257.87-7.9L257.87-7.9Q257.87-7.35 256.87-6.2 255.87-5.05 254.89-3.7 253.92-2.35 253.92-1.3L253.92-1.3Q253.92-0.75 254.74-0.75 255.57-0.75 257.67-1.73 259.77-2.7 261.37-3.7L261.37-3.7 262.97-4.7Q263.02-4.6 263.02-4.3 263.02-4 262.57-3.8L262.57-3.8Q255.82 0.8 253.17 0.8L253.17 0.8Q251.87 0.8 251.87-0.6L251.87-0.6Q251.87-1.55 252.57-2.9 253.27-4.25 253.97-5.15L253.97-5.15 254.62-6.05Q252.37-4.35 249.97-2.23 247.57-0.1 246.32 0.98 245.07 2.05 244.57 2.05 244.07 2.05 244.07 1.33 244.07 0.6 246.42-3.7 248.77-8 251.84-12.98 254.92-17.95 258.29-22 261.67-26.05 263.42-26.05L263.42-26.05Q264.17-26.05 264.47-25.35L264.47-25.35Q264.62-25.1 264.62-24.75L264.62-24.75Q264.62-21.3 254.27-11.5L254.27-11.5Q252.32-9.6 250.47-8L250.47-8Q246.67-1.6 246.67-0.65ZM262.97-24.2L262.97-24.2Q262.97-24.7 262.72-24.7L262.72-24.7Q261.72-24.7 258.52-20.3 255.32-15.9 251.72-10.05L251.72-10.05Q262.97-20.3 262.97-24.2ZM296.8-3.5L296.8-3.5Q295.25-2.55 293.2-2.55L293.2-2.55 292.6-2.55Q291.25-1 289.72-0.03 288.2 0.95 287.1 0.95L287.1 0.95Q285.55 0.95 285.55-1.05 285.55-3.05 287.7-5.7L287.7-5.7Q287.5-6.25 287.5-7.05L287.5-7.05Q287.5-8.8 289.02-10.08 290.55-11.35 292-11.35L292-11.35Q295.05-11.35 295.05-8.05L295.05-8.05Q295.05-5.85 293.15-3.25L293.15-3.25 293.75-3.25Q295.35-3.25 296.5-4L296.5-4Q296.65-4.15 296.9-4.15 297.15-4.15 297.15-3.98 297.15-3.8 296.8-3.5ZM292-9.25L292-9.25Q292.25-9.35 292.4-9.35 292.55-9.35 292.55-9.13 292.55-8.9 292-8.5L292-8.5Q290-6.95 289-5.7L289-5.7Q290.1-3.95 292.35-3.4L292.35-3.4Q294.3-5.7 294.3-7.7L294.3-7.7Q294.3-8.85 293.55-9.45 292.8-10.05 291.62-10.05 290.45-10.05 289.45-9.38 288.45-8.7 288.45-7.93 288.45-7.15 288.6-6.7L288.6-6.7Q290.15-8.3 292-9.25ZM288.3-4.6L288.3-4.6Q287.5-3.25 287.5-1.6L287.5-1.6Q287.5-0.7 288.3-0.7L288.3-0.7Q289.65-0.7 291.65-2.7L291.65-2.7Q289.4-3.1 288.3-4.6ZM375.8-5.4L375.8-5.4Q376.2-5.4 376.2-4.8L376.2-4.8Q376.2-4.05 373.88-2.5 371.55-0.95 367.88 0.38 364.2 1.7 361.15 1.7L361.15 1.7Q353.35 1.7 353.35-6.95L353.35-6.95Q353.35-11.35 355.33-15.8 357.3-20.25 360.43-23.73 363.55-27.2 367.23-29.95 370.9-32.7 374.53-34.18 378.15-35.65 380.9-35.65L380.9-35.65Q386.6-35.65 386.6-31.25L386.6-31.25Q386.6-27.95 383.55-23.4 380.5-18.85 376.1-15.5 371.7-12.15 368.2-12.15L368.2-12.15Q365.5-12.15 365.5-14.7L365.5-14.7Q365.5-17.95 369.73-22.73 373.95-27.5 376.95-27.5L376.95-27.5Q377.35-27.5 377.35-27.2L377.35-27.2 377.1-26.55Q375.3-26.55 372.85-24.5 370.4-22.45 368.7-19.75 367-17.05 367-15.25L367-15.25Q367-13.25 369.05-13.25L369.05-13.25Q371.6-13.25 375.33-16.35 379.05-19.45 381.78-23.68 384.5-27.9 384.5-30.8L384.5-30.8Q384.5-34.45 379.9-34.45L379.9-34.45Q377.5-34.45 374.25-33.08 371-31.7 367.7-29.1 364.4-26.5 361.58-23.25 358.75-20 356.98-15.83 355.2-11.65 355.2-7.5L355.2-7.5Q355.2 0.4 362.2 0.4L362.2 0.4Q365.85 0.4 370.1-1.58 374.35-3.55 375.8-5.4ZM411.53-3.5L411.53-3.5Q409.98-2.55 407.93-2.55L407.93-2.55 407.33-2.55Q405.98-1 404.46-0.03 402.93 0.95 401.83 0.95L401.83 0.95Q400.28 0.95 400.28-1.05 400.28-3.05 402.43-5.7L402.43-5.7Q402.23-6.25 402.23-7.05L402.23-7.05Q402.23-8.8 403.76-10.08 405.28-11.35 406.73-11.35L406.73-11.35Q409.78-11.35 409.78-8.05L409.78-8.05Q409.78-5.85 407.88-3.25L407.88-3.25 408.48-3.25Q410.08-3.25 411.23-4L411.23-4Q411.38-4.15 411.63-4.15 411.88-4.15 411.88-3.98 411.88-3.8 411.53-3.5ZM406.73-9.25L406.73-9.25Q406.98-9.35 407.13-9.35 407.28-9.35 407.28-9.13 407.28-8.9 406.73-8.5L406.73-8.5Q404.73-6.95 403.73-5.7L403.73-5.7Q404.83-3.95 407.08-3.4L407.08-3.4Q409.03-5.7 409.03-7.7L409.03-7.7Q409.03-8.85 408.28-9.45 407.53-10.05 406.36-10.05 405.18-10.05 404.18-9.38 403.18-8.7 403.18-7.93 403.18-7.15 403.33-6.7L403.33-6.7Q404.88-8.3 406.73-9.25ZM403.03-4.6L403.03-4.6Q402.23-3.25 402.23-1.6L402.23-1.6Q402.23-0.7 403.03-0.7L403.03-0.7Q404.38-0.7 406.38-2.7L406.38-2.7Q404.13-3.1 403.03-4.6ZM443.81-4.7L443.81-4.7Q443.46-3.35 443.46-1.8 443.46-0.25 444.76-0.25L444.76-0.25Q445.11-0.25 445.93-0.63 446.76-1 446.88-1 447.01-1 447.01-0.9L447.01-0.9Q447.01-0.3 445.96 0.35 444.91 1 443.86 1L443.86 1Q441.76 1 441.76-1.8L441.76-1.8Q441.76-2.45 441.81-2.8L441.81-2.8Q437.81 0.7 435.68 0.7 433.56 0.7 433.56-0.75L433.56-0.75Q433.56-2.9 437.23-6.13 440.91-9.35 444.21-9.8L444.21-9.8Q447.06-15.65 451.23-20.75 455.41-25.85 457.66-25.85L457.66-25.85Q458.06-25.85 458.31-25.43 458.56-25 458.56-24.6L458.56-24.6Q458.56-22.95 453.68-16.3 448.81-9.65 443.81-4.7ZM456.71-23.85L456.71-23.85Q456.71-24.25 456.41-24.25L456.41-24.25Q455.56-24.25 453.18-21.45 450.81-18.65 448.21-14.33 445.61-10 444.36-6.4L444.36-6.4Q449.01-11.3 452.86-16.55 456.71-21.8 456.71-23.85ZM435.96-1.15L435.96-1.15Q435.96-0.4 436.81-0.4L436.81-0.4Q438.16-0.4 442.06-4.15L442.06-4.15Q442.71-6.45 443.61-8.4L443.61-8.4Q441.16-7.8 438.56-5.2 435.96-2.6 435.96-1.15ZM475.89-4.85L475.89-4.85Q472.89-4.85 472.89-6.15L472.89-6.15Q472.89-7.7 476.44-9.83 479.99-11.95 482.84-11.95L482.84-11.95Q484.29-11.95 484.29-11.05L484.29-11.05Q484.29-10.55 483.54-9.95 482.79-9.35 482.09-9 481.39-8.65 481.29-8.65L481.29-8.65Q480.99-8.65 480.89-8.9L480.89-8.9Q480.79-9.25 481.41-9.63 482.04-10 482.04-10.45 482.04-10.9 480.91-10.9 479.79-10.9 477.39-9.33 474.99-7.75 474.99-6.75L474.99-6.75Q474.99-6 476.74-6L476.74-6Q477.04-6 477.84-6.05 478.64-6.1 478.64-5.85 478.64-5.6 476.16-4.05 473.69-2.5 473.69-1.4L473.69-1.4Q473.69-0.15 475.31-0.15 476.94-0.15 478.99-1L478.99-1Q482.29-2.45 484.99-4.1L484.99-4.1 485.94-4.7Q485.99-4.6 485.99-4.3 485.99-4 485.54-3.8L485.54-3.8Q482.89-2 479.74-0.38 476.59 1.25 474.06 1.25 471.54 1.25 471.54-0.43 471.54-2.1 475.89-4.85Z" opacity="1" transform="matrix(1,0,0,1,0,0)" fill="#d7dbde" class="slogan-text-1" data-fill-palette-color="secondary" id="text-1"></path></svg></g></svg></g></svg></g></svg></g></svg></g></svg></g></svg></g><g><path d="M0 123.6c0-68.262 55.338-123.6 123.6-123.6 52.543 0 97.429 32.786 115.315 79.017h-2.066c-17.786-45.145-61.787-77.094-113.249-77.093-67.2 0-121.676 54.476-121.676 121.676 0 67.2 54.476 121.676 121.676 121.676 51.462 0 95.463-31.949 113.249-77.093h2.066c-17.886 46.231-62.772 79.017-115.315 79.017-68.262 0-123.6-55.338-123.6-123.6z" fill="#d7dbde" stroke="transparent" data-fill-palette-color="tertiary"></path></g></svg></g><defs></defs></svg><rect width="395.52" height="247.2" fill="none" stroke="none" visibility="hidden"></rect></g></svg></g></svg>