<svg xmlns="http://www.w3.org/2000/svg" version="1.1" xmlns:xlink="http://www.w3.org/1999/xlink" xmlns:svgjs="http://svgjs.dev/svgjs" width="1500" height="1500" viewBox="0 0 1500 1500"><g transform="matrix(1,0,0,1,-0.323615160350073,-0.3236151603499593)"><svg viewBox="0 0 343 343" data-background-color="#ffffff" preserveAspectRatio="xMidYMid meet" height="1500" width="1500" xmlns="http://www.w3.org/2000/svg" xmlns:xlink="http://www.w3.org/1999/xlink"><g id="tight-bounds" transform="matrix(1,0,0,1,0.0740000000000407,0.07400000000001228)"><svg viewBox="0 0 342.85155851775386 342.85155851775386" height="342.85155851775386" width="342.85155851775386"><g><svg></svg></g><g><svg viewBox="0 0 342.85155851775386 342.85155851775386" height="342.85155851775386" width="342.85155851775386"><g><path d="M0 171.426c0-94.676 76.75-171.426 171.426-171.426 94.676 0 171.426 76.75 171.426 171.426 0 94.676-76.75 171.426-171.426 171.426-94.676 0-171.426-76.75-171.426-171.426zM171.426 333.393c89.452 0 161.967-72.515 161.967-161.967 0-89.452-72.515-161.967-161.967-161.967-89.452 0-161.967 72.515-161.967 161.967 0 89.452 72.515 161.967 161.967 161.967z" data-fill-palette-color="tertiary" fill="#bb84e8" stroke="transparent"></path><ellipse rx="164.56874808852186" ry="164.56874808852186" cx="171.42577925887693" cy="171.42577925887693" fill="#bb84e8" stroke="transparent" stroke-width="0" fill-opacity="1" data-fill-palette-color="tertiary"></ellipse></g><g transform="matrix(1,0,0,1,64.84655864529837,118.9839582069684)"><svg viewBox="0 0 213.1584412271571 104.88364210381708" height="104.88364210381708" width="213.1584412271571"><g><svg viewBox="0 0 213.1584412271571 104.88364210381708" height="104.88364210381708" width="213.1584412271571"><g><svg viewBox="0 0 213.1584412271571 104.88364210381708" height="104.88364210381708" width="213.1584412271571"><g><svg viewBox="0 0 213.1584412271571 104.88364210381708" height="104.88364210381708" width="213.1584412271571"><g id="textblocktransform"><svg viewBox="0 0 213.1584412271571 104.88364210381708" height="104.88364210381708" width="213.1584412271571" id="textblock"><g><svg viewBox="0 0 213.1584412271571 104.88364210381708" height="104.88364210381708" width="213.1584412271571"><g transform="matrix(1,0,0,1,0,0)"><svg width="213.1584412271571" viewBox="1.1 -30.96 64.45 31.720000000000002" height="104.88364210381708" data-palette-color="#ffffff"><path d="M1.42 0L25.59 0 26.49-8.08 24.41-8.4 21.22-2.34 10.42-2.34 10.42-27.37 14.6-28.52 14.84-30.37 1.42-30.37 1.1-28.52 5.69-27.27 5.69-2.95 1.64-1.81 1.42 0ZM30.66 0.76Q31.47 0.76 32.15 0.35 32.83-0.05 33.24-0.72 33.64-1.39 33.64-2.2L33.64-2.2Q33.64-3.37 32.76-4.19 31.88-5 30.66-5L30.66-5Q29.49-5 28.64-4.21 27.78-3.42 27.78-2.25L27.78-2.25Q27.78-1 28.62-0.12 29.47 0.76 30.66 0.76L30.66 0.76ZM34.71 0L46.14 0 46.41-1.95 41.87-3.03 44.33-10.55 54.56-10.55 57.22-3.15 53.05-1.81 52.75 0 65.33 0 65.55-1.95 62.2-3.03 52.68-30.96 48.99-30.2 38.57-3.15 34.93-1.81 34.71 0ZM45.26-13.04L49.8-25.24 53.85-13.04 45.26-13.04Z" opacity="1" transform="matrix(1,0,0,1,0,0)" fill="#ffffff" class="wordmark-text-0" data-fill-palette-color="quaternary" id="text-0"></path></svg></g></svg></g></svg></g></svg></g><g></g></svg></g></svg></g></svg></g></svg></g><defs></defs></svg><rect width="342.85155851775386" height="342.85155851775386" fill="none" stroke="none" visibility="hidden"></rect></g></svg></g></svg>